v -0.5 +0.5 -0.5
v +0.5 +0.5 -0.5
v +0.5 -0.5 -0.5
v -0.5 -0.5 -0.5
v -0.5 +0.5 +0.5
v +0.5 +0.5 +0.5
v +0.5 -0.5 +0.5
v -0.5 -0.5 +0.5

vn 0.0 0.0 -1.0
vn 0.0 0.0 +1.0
vn 0.0 -1.0 0.0
vn 0.0 +1.0 0.0
vn -1.0 0.0 0.0
vn +1.0 0.0 0.0

vt 0.0 0.0
vt 1.0 0.0
vt 1.0 1.0
vt 0.0 1.0

vc 0.0 0.0 0.0 0.0

#f v/vt/vn/vc
f 1/1/1/1 2/2/1/1 3/3/1/1
f 1/1/1/1 3/3/1/1 4/4/1/1
f 2/1/6/1 6/2/6/1 7/3/6/1
f 2/1/6/1 7/3/6/1 3/4/6/1
f 6/1/2/1 5/2/2/1 8/3/2/1
f 6/1/2/1 8/3/2/1 7/4/2/1
f 5/1/5/1 1/2/5/1 4/3/5/1
f 5/1/5/1 4/3/5/1 8/4/5/1
f 5/1/4/1 6/2/4/1 2/3/4/1
f 5/1/4/1 2/3/4/1 1/4/4/1
f 4/1/3/1 3/2/3/1 7/3/3/1
f 4/1/3/1 7/3/3/1 8/4/3/1